# xmcd
#
# Track frame offsets:
#	150
#	13925
#	24077
#	37375
#	50000
#	63525
#	72137
#	86542
#	99975
#	113292
#	123127
#	131335
#	144502
#	157455
#	168835
#	181867
#	191130
#	203127
#	215017
#	226045
#	242492
#	254407
#	270070
#
# Disc length: 3772 seconds
#
# Revision: 0
# Processed by: cddbd v1.4PL0 Copyright (c) Steve Scherf et al.
# Submitted via: EasyCDDAExtractor 4.6.0.1
#
DISCID=380eba17
DTITLE=Bob Thomason - Wayfaring Stranger - I'll Fly Away
DYEAR=1900
DGENRE=Country
TTITLE0=Wayfaring Stranger
TTITLE1=Boatman
TTITLE2=Canadian Waltz
TTITLE3=WhenShe Can Be - Lark in the Morning
TTITLE4=What a Friend We Have in Jesus
TTITLE5=The Ash Grove
TTITLE6=Danny Boy
TTITLE7=Haste to the Wedding
TTITLE8=Nouveau Noelle - Let All Mortal Flesh
TTITLE9=A Mazurka
TTITLE10=Harvest Home
TTITLE11=Maggie in the Woods - Western Country
TTITLE12=I'll Fly Away - Uncloudy Day
TTITLE13=Amazing Grace
TTITLE14=Simple Gifts - How Firm a Foundation
TTITLE15=Be Thou My Vision
TTITLE16=On Jordan's Stormy Banks - Brethren We Have Met
TTITLE17=Holy, Holy, Holy
TTITLE18=Shall We Gather at the River - When the Roll is Called
TTITLE19=Sweet Hour of Prayer - Just As I Am
TTITLE20=Life's Railway to Heaven
TTITLE21=My Jesus I Love Thee - Fairest Lord Jesus
TTITLE22=My Shepherd Shall Supply My Need
EXTD=
EXTT0=
EXTT1=
EXTT2=
EXTT3=
EXTT4=
EXTT5=
EXTT6=
EXTT7=
EXTT8=
EXTT9=
EXTT10=
EXTT11=
EXTT12=
EXTT13=
EXTT14=
EXTT15=
EXTT16=
EXTT17=
EXTT18=
EXTT19=
EXTT20=
EXTT21=
EXTT22=
PLAYORDER=
